PathFileType	4	(X/Y/Z)	C:\Users\Basilio\Documents\Thesis Gigler\squatting_fais\c3dfiles\044\SJ_pre3\markers_experimental.trc
DataRate	CameraRate	NumFrames	NumMarkers	Units	OrigDataRate	OrigDataStartFrame	OrigNumFrames
200.000000	200.000000	4	63	mm	200.000000	0	1427
Frame#	Time	FHD			LBHD			RBHD			C7			T10			CLAV			LSHO			LUUPA			LMUPA			LDUPA			LLEP			LMEP			LRAD			LUL			LRFIN			RSHO			RUPA1			RMUPA			RDUPA			RLEP			RMEP			RRAD			RUL			RUFIN			RASI			USACR			LSACR			RSACR			LTHI1			LTHI2			LTHI3			LTHI4			LLFC			LMFC			LTIB1			LTIB2			LTIB3			LTIB4			LLMAL			LMMAL			LHEE			LMT1			LMT2			LMT5			RTHI			RTHI2			RTHI3			RTHI4			RLFC			RMFC			RTIB1			RTIB2			RTIB3			RTIB4			RLMAL			RMMAL			RHEE			RMT1			RMT2			RMT5			LASI			*61			*62			
		X1	Y1	Z1	X2	Y2	Z2	X3	Y3	Z3	X4	Y4	Z4	X5	Y5	Z5	X6	Y6	Z6	X7	Y7	Z7	X8	Y8	Z8	X9	Y9	Z9	X10	Y10	Z10	X11	Y11	Z11	X12	Y12	Z12	X13	Y13	Z13	X14	Y14	Z14	X15	Y15	Z15	X16	Y16	Z16	X17	Y17	Z17	X18	Y18	Z18	X19	Y19	Z19	X20	Y20	Z20	X21	Y21	Z21	X22	Y22	Z22	X23	Y23	Z23	X24	Y24	Z24	X25	Y25	Z25	X26	Y26	Z26	X27	Y27	Z27	X28	Y28	Z28	X29	Y29	Z29	X30	Y30	Z30	X31	Y31	Z31	X32	Y32	Z32	X33	Y33	Z33	X34	Y34	Z34	X35	Y35	Z35	X36	Y36	Z36	X37	Y37	Z37	X38	Y38	Z38	X39	Y39	Z39	X40	Y40	Z40	X41	Y41	Z41	X42	Y42	Z42	X43	Y43	Z43	X44	Y44	Z44	X45	Y45	Z45	X46	Y46	Z46	X47	Y47	Z47	X48	Y48	Z48	X49	Y49	Z49	X50	Y50	Z50	X51	Y51	Z51	X52	Y52	Z52	X53	Y53	Z53	X54	Y54	Z54	X55	Y55	Z55	X56	Y56	Z56	X57	Y57	Z57	X58	Y58	Z58	X59	Y59	Z59	X60	Y60	Z60	X61	Y61	Z61	X62	Y62	Z62	X63	Y63	Z63	

1	0	-175.4015350341797	1768.629272460938	-950.3040771484377	-317.0441894531251	1717.31494140625	-997.809020996094	-326.0983581542969	1703.27587890625	-831.4189453125002	-364.5065002441407	1537.278442382813	-927.4442138671877	-393.2777709960939	1232.604248046875	-926.6273193359377	-228.9248504638672	1487.901245117188	-925.403259277344	-267.6212768554688	1530.771606445313	-1106.987426757813	-354.6757812500001	1366.993286132813	-1253.107177734375	-321.8604431152344	1328.03564453125	-1251.316650390625	-368.1632995605469	1307.386962890625	-1286.1962890625	-368.4107971191407	1248.56396484375	-1302.49951171875	-432.6800537109376	1238.360717773438	-1246.7001953125	-287.7868041992188	1035.82666015625	-1135.427612304688	-255.5879974365235	1017.168701171875	-1193.961303710938	-233.7666320800782	1015.208557128906	-1093.029541015625	-286.1104736328126	1512.7177734375	-731.4274902343751	-369.6328125000001	1356.2099609375	-592.7452392578126	-337.6960144042969	1316.60546875	-590.8428955078126	-381.1961059570313	1297.612426757813	-554.8502807617189	-376.0797424316407	1236.7021484375	-535.5573120117189	-445.5589599609376	1221.144165039063	-588.2046508789064	-296.8919067382813	1031.727905273438	-704.8099975585939	-273.6961059570313	1002.1513671875	-641.1394042968751	-235.3843994140626	1012.601135253906	-745.3167114257814	-202.6821441650391	1011.79443359375	-813.8234863281252	-372.9718017578126	1079.559204101563	-917.0963134765627	-379.5787963867188	1047.90185546875	-944.2827758789065	-376.1100158691407	1049.616577148438	-887.774597167969	-320.9707641601563	807.1931762695315	-1117.786254882813	-294.6876831054688	727.0734863281251	-1119.131225585938	-247.1081085205079	724.5988769531251	-1109.397216796875	-328.0242614746094	677.0191650390626	-1108.958740234375	-329.6208801269532	516.1518554687501	-1101.290405273438	-318.8663940429688	501.1312866210939	-980.8159790039065	-309.3631896972657	336.1629943847657	-1045.183959960938	-336.9496154785157	295.9550476074219	-1119.539306640625	-306.7283020019532	291.2942504882813	-1084.21337890625	-319.9230346679688	211.609848022461	-1060.926513671875	-371.2218017578126	93.78028106689455	-1115.446166992188	-349.9935913085938	98.69831085205081	-1031.466796875	-427.784881591797	47.73186492919923	-1069.18310546875	-211.4452209472657	60.57150650024415	-1055.097290039063	-214.1578369140626	60.96540451049806	-1101.53466796875	-249.4517974853516	39.36657714843751	-1148.72509765625	-315.9993286132813	755.4276123046876	-735.4202880859376	-278.0320739746094	699.5350952148439	-729.6943359375001	-245.4127349853516	699.6037597656251	-735.2454223632814	-306.8039855957032	620.2456054687501	-743.4374389648439	-316.3518981933594	505.323211669922	-749.0711669921876	-317.7165222167969	493.6985778808595	-872.4368896484377	-281.8367919921876	374.0342102050782	-766.7969360351564	-357.5078125000001	309.8912353515626	-718.5823364257814	-315.8349609375001	299.3422546386719	-734.2565307617189	-308.4610900878907	247.220932006836	-756.8383178710939	-382.5747375488282	95.52354431152345	-736.6096801757814	-358.6682739257813	99.75759887695315	-818.215515136719	-434.4124145507814	48.88818740844728	-781.895935058594	-223.6918029785157	62.82837677001955	-788.241638183594	-218.0370788574219	60.8855323791504	-749.5396728515626	-256.6787719726563	39.94224548339844	-698.9234008789064	nan	nan	nan	nan	nan	nan	nan	nan	nan	
2	0.005	-175.4788970947266	1768.682739257813	-950.3988037109377	-317.1453857421876	1717.3232421875	-997.8525390625002	-325.9513549804688	1703.251098632813	-831.5595703125002	-364.4853515625001	1537.265380859375	-927.5657348632815	-393.3401184082032	1232.6357421875	-926.7656250000002	-228.8891754150391	1487.9228515625	-925.4938964843752	-267.5596008300782	1530.82177734375	-1107.044799804688	-354.3404541015626	1367.05908203125	-1253.321533203125	-321.5532226562501	1328.084716796875	-1251.517456054688	-366.7359008789063	1307.204711914063	-1286.635986328125	-367.9740295410157	1248.627319335938	-1302.773193359375	-432.4298706054689	1238.360717773438	-1246.975952148438	-287.6311645507813	1035.813354492188	-1135.552978515625	-255.6826934814454	1016.690795898438	-1193.973876953125	-233.6396026611329	1015.093017578125	-1093.072875976563	-286.1221923828126	1512.757080078125	-731.4816894531251	-369.5548095703126	1356.176879882813	-592.7732543945314	-337.5168762207032	1316.51123046875	-591.0373535156251	-381.0046997070313	1297.567993164063	-554.8887939453126	-375.8844299316407	1236.5791015625	-535.5802612304689	-445.4593811035157	1221.108764648438	-588.1876220703126	-296.8511047363282	1031.54345703125	-704.8407592773439	-273.6800537109376	1002.03955078125	-641.2570800781251	-235.4174346923829	1012.445495605469	-745.4328613281251	-202.9477081298829	1011.792053222656	-813.9315185546877	-373.1195678710938	1079.549072265625	-917.274597167969	-379.6992797851563	1047.913940429688	-944.469665527344	-376.3268432617188	1049.609252929688	-887.9425048828127	-320.9077148437501	807.1931152343752	-1117.910278320313	-294.6574707031251	727.0805664062501	-1119.21630859375	-247.0263366699219	724.6054077148439	-1109.462158203125	-327.9171142578126	676.9891357421876	-1109.036743164063	-329.6055297851563	516.1480102539064	-1101.371704101563	-318.8457336425782	501.115692138672	-980.873229980469	-309.3424072265626	336.2000732421876	-1045.22607421875	-337.6740112304688	295.1765136718751	-1119.691772460938	-306.7151489257813	291.2716674804688	-1084.305053710938	-319.9720458984376	211.5497131347657	-1060.916870117188	-371.2371215820313	93.80434417724611	-1115.47265625	-349.9989013671876	98.70915222167972	-1031.469848632813	-427.7901000976564	47.71992874145509	-1069.175415039063	-211.4598388671876	60.59779739379884	-1055.105834960938	-213.9134368896485	60.39686584472658	-1101.420532226563	-249.4776916503907	39.33439636230469	-1148.718994140625	-316.1188354492188	755.4381713867189	-735.5321044921876	-278.0035400390626	699.2675170898439	-729.4111938476564	-245.5362396240235	699.6633300781251	-735.2844238281251	-306.9472656250001	620.6459350585939	-743.8552246093751	-316.4060974121094	505.3203735351564	-749.1522827148439	-317.7504577636719	493.7023925781251	-872.4605712890627	-281.8525085449219	374.0306396484376	-766.8248291015626	-357.5503845214844	309.9223022460938	-718.6149291992189	-315.7994689941407	299.2987976074219	-734.2622680664064	-308.4567565917969	247.1840057373047	-756.8589477539064	-382.5785827636719	95.51356506347658	-736.6285400390626	-358.6100158691407	99.76089477539065	-818.2175903320315	-434.4127197265626	48.88975143432619	-781.8933715820315	-222.6613769531251	63.4315757751465	-787.8353271484377	-218.2775268554688	60.76165008544923	-749.6028442382814	-256.6730957031251	39.91550827026368	-698.8858032226564	nan	nan	nan	nan	nan	nan	nan	nan	nan	
3	0.01	-175.6508026123047	1768.682739257813	-950.460144042969	-317.0663452148438	1717.337890625	-997.919372558594	-326.0498962402344	1702.640258789063	-831.092468261719	-364.4862976074219	1537.327270507813	-927.6701660156252	-393.3551330566407	1232.684448242188	-926.8562622070315	-228.7856140136719	1487.942260742188	-925.6295166015627	-267.4574890136719	1530.868774414063	-1107.175170898438	-353.9830017089844	1367.082763671875	-1253.510375976563	-321.3601989746094	1328.099609375	-1251.587646484375	-366.5806579589844	1307.241577148438	-1286.750610351563	-367.3828430175782	1248.63037109375	-1303.137329101563	-432.186492919922	1238.34228515625	-1247.22412109375	-287.4558410644532	1035.804077148438	-1135.646606445313	-255.3265380859376	1016.701232910156	-1194.080444335938	-233.4946289062501	1015.008972167969	-1093.122680664063	-286.1389770507813	1512.776123046875	-731.5580444335939	-369.4925842285157	1356.143432617188	-592.7737426757814	-337.4396362304688	1316.453491210938	-591.0966796875001	-380.7094421386719	1297.50244140625	-554.9678955078126	-375.7829895019532	1236.51220703125	-535.6152954101564	-445.2810668945314	1221.032104492188	-588.1527709960939	-296.9177856445313	1031.382080078125	-704.9244384765626	-273.6573181152344	1001.896240234375	-641.3745117187501	-235.4561920166016	1012.313598632813	-745.4913330078126	-203.0971832275391	1011.806640625	-814.0538330078127	-373.2602233886719	1079.542846679688	-917.4277343750002	-379.7500915527344	1047.8984375	-944.6077270507815	-376.4982910156251	1049.597778320313	-888.146911621094	-320.9158020019532	807.2427368164065	-1117.980346679688	-294.6778564453126	727.0888061523439	-1119.268676757813	-247.0245056152344	724.6105957031251	-1109.520751953125	-327.9093322753907	676.9733276367189	-1109.16552734375	-329.4845886230469	516.1333618164064	-1101.4541015625	-318.7459411621094	501.0850524902345	-980.9465332031252	-309.3865356445313	336.1321716308594	-1045.302124023438	-337.6433715820313	295.1789855957032	-1119.730102539063	-306.6008605957032	291.3215637207032	-1084.292724609375	-319.9016418457032	211.5668334960938	-1060.957641601563	-371.2160034179688	93.79587554931642	-1115.467651367188	-350.0057067871094	98.69813537597659	-1031.44970703125	-427.7901000976564	47.71992874145509	-1069.175415039063	-211.4263763427735	60.57151031494142	-1055.0966796875	-213.9290313720704	60.40037918090822	-1101.431884765625	-249.4776763916016	39.33436965942384	-1148.718994140625	-316.1543579101563	755.1780395507814	-735.6858520507814	-278.0370483398438	699.1442871093751	-729.7894287109376	-245.6969146728516	699.6371459960939	-734.7783813476564	-306.8974914550782	620.2470092773439	-743.6321411132814	-316.4352416992188	505.3104248046876	-749.2274169921876	-317.7719421386719	493.686981201172	-872.5247192382815	-281.8506774902344	374.0654296875001	-766.8877563476564	-357.5416564941407	309.9255371093751	-718.6699829101564	-315.7849426269532	299.3123779296876	-734.3015136718751	-308.5012817382813	247.2373657226563	-756.9425048828126	-382.5844116210938	95.53269195556642	-736.6285400390626	-358.6082763671876	99.76831054687503	-818.2437744140627	-434.4251403808595	48.88301849365236	-781.9109497070315	-223.7285766601563	62.82204818725587	-788.2451782226565	-218.0224914550782	60.88282775878908	-749.5498046875001	-256.6488647460938	39.97273254394532	-698.8621215820314	-205.9289245605469	1031.159545898438	-1034.58056640625	nan	nan	nan	nan	nan	nan	
4	0.015	-175.3973236083985	1768.721313476563	-950.6062622070315	-317.1198120117188	1717.333618164063	-998.0007324218752	-325.9134521484376	1703.484008789063	-831.6259765625002	-364.4630432128907	1537.324340820313	-927.7867431640627	-393.4121398925782	1232.748046875	-926.9915771484377	-228.7452850341797	1488.008422851563	-925.637390136719	-267.3687744140626	1530.8974609375	-1107.268310546875	-353.6241455078126	1367.078125	-1253.69677734375	-321.0853576660157	1328.163940429688	-1251.655029296875	-367.2741699218751	1307.475463867188	-1286.708984375	-367.0338745117188	1248.721557617188	-1303.348022460938	-431.8920288085939	1238.396850585938	-1247.543579101563	-287.2763061523438	1035.783081054688	-1135.778442382813	-255.101791381836	1016.67822265625	-1194.205688476563	-233.4876251220704	1014.866882324219	-1093.210815429688	-286.1296386718751	1512.82763671875	-731.6419067382814	-369.4292297363282	1356.09130859375	-592.8194580078126	-337.3620910644532	1316.380249023438	-591.2075195312501	-380.5205688476563	1297.39892578125	-555.0399169921876	-375.6672058105469	1236.478393554688	-535.6831665039064	-445.1322326660157	1220.939331054688	-588.1865234375001	-296.9254455566407	1031.177368164063	-705.0271606445314	-273.6718750000001	1001.762268066406	-641.4511108398439	-234.5933837890626	1012.08056640625	-745.3464965820314	-203.1727600097657	1011.791564941406	-814.0927734375002	-373.4081420898438	1079.533447265625	-917.606384277344	-379.8460693359376	1047.904296875	-944.8031005859377	-376.6748352050782	1049.631713867188	-888.2618408203127	-320.9776306152344	807.2307128906252	-1118.0498046875	-294.6569213867188	727.0833129882814	-1119.3330078125	-246.9967498779297	724.6298217773439	-1109.560424804688	-327.8949890136719	676.9819335937501	-1109.241088867188	-329.4332885742188	516.1164550781251	-1101.513671875	-318.7602233886719	501.1649780273439	-980.996032714844	-309.3165588378907	336.1872863769532	-1045.282958984375	-336.7580871582032	295.8987121582032	-1119.665893554688	-306.4305114746094	290.9156188964844	-1084.35595703125	-319.8760070800782	211.5725708007813	-1060.986328125	-371.1929626464844	93.78340911865236	-1115.469360351563	-350.0067443847657	98.69807434082034	-1031.474975585938	-427.799774169922	47.70343017578126	-1069.184326171875	-211.4598388671876	60.58652114868165	-1055.113159179688	-213.9338836669922	60.3959312438965	-1101.43310546875	-249.4600830078126	39.31012725830079	-1148.71826171875	-316.2448425292969	755.1552124023439	-735.7576904296876	-278.2054748535157	699.1589355468751	-729.9169311523439	-245.7496185302735	699.6189575195314	-734.8446044921876	-307.0338439941407	620.6549072265626	-743.9915161132814	-316.4480285644532	505.3278198242189	-749.3018798828126	-317.7852783203126	493.6596984863282	-872.578552246094	-281.9174194335938	374.0530090332032	-766.9162597656251	-357.5417175292969	309.9538269042969	-718.6968383789064	-315.7767028808594	299.3050231933594	-734.3706054687501	-308.4964294433594	247.2523956298829	-756.9456176757814	-382.5898742675782	95.55442810058595	-736.6367187500001	-358.5784301757813	99.79236602783206	-818.243103027344	-434.4062805175782	48.90417861938478	-781.892761230469	-223.7285766601563	62.82204818725587	-788.2451782226565	-218.0200347900391	60.88387680053712	-749.5382690429689	-256.6532287597657	39.94299697875977	-698.8795166015626	-205.9805908203126	1031.087890625	-1034.66845703125	nan	nan	nan	nan	nan	nan	
